<svg width="36" height="36" viewBox="0 0 36 36" fill="none" xmlns="http://www.w3.org/2000/svg">
<path d="M6.03 8.955C4.125 11.475 3 14.61 3 18C3 26.28 9.72 33 18 33C26.28 33 33 26.28 33 18C33 9.72 26.28 3 18 3" stroke="#0B60EA" stroke-width="3" stroke-linecap="round" stroke-linejoin="round"/>
<path d="M7.5 18C7.5 23.805 12.195 28.5 18 28.5C23.805 28.5 28.5 23.805 28.5 18C28.5 12.195 23.805 7.5 18 7.5" stroke="#0B60EA" stroke-width="3" stroke-linecap="round" stroke-linejoin="round"/>
<path d="M18 24C21.315 24 24 21.315 24 18C24 14.685 21.315 12 18 12" stroke="#0B60EA" stroke-width="3" stroke-linecap="round" stroke-linejoin="round"/>
</svg>
